<mxfile host="app.diagrams.net" modified="2023-06-28T09:53:34.156Z" agent="Mozilla/5.0 (Macintosh; Intel Mac OS X 10_15_7) AppleWebKit/537.36 (KHTML, like Gecko) Chrome/114.0.0.0 Safari/537.36" version="21.5.1" etag="O2XKUQuE-VSYA5t4wHCi" type="github">
  <diagram name="Page-1" id="OQ-rIvGpJXKAF0s7aOm5">
    <mxGraphModel>
      <root>
        <mxCell id="0" />
        <mxCell id="1" parent="0" />
      </root>
    </mxGraphModel>
  </diagram>
</mxfile>
